<mxfile host="app.diagrams.net" modified="2020-10-16T09:41:59.173Z" agent="5.0 (Macintosh; Intel Mac OS X 10_15_2) AppleWebKit/537.36 (KHTML, like Gecko) Chrome/85.0.4183.83 Safari/537.36" etag="9Rtc_-HW4XaUgTOGjzlv" version="13.8.0" type="github">
  <diagram id="i7z6EnP_eaary5oCkwnf" name="Page-1">
    <mxGraphModel dx="1106" dy="635" grid="1" gridSize="10" guides="1" tooltips="1" connect="1" arrows="1" fold="1" page="1" pageScale="1" pageWidth="1920" pageHeight="1200" math="0" shadow="0">
      <root>
        <mxCell id="0" />
        <mxCell id="1" parent="0" />
        <mxCell id="FRa2Onn5CMNMO9TeJyTO-1" value="User" style="shape=umlActor;verticalLabelPosition=bottom;verticalAlign=top;html=1;outlineConnect=0;" vertex="1" parent="1">
          <mxGeometry x="30" y="290" width="30" height="60" as="geometry" />
        </mxCell>
        <mxCell id="FRa2Onn5CMNMO9TeJyTO-2" value="Xem kho giao diện" style="ellipse;whiteSpace=wrap;html=1;" vertex="1" parent="1">
          <mxGeometry x="190" y="280" width="120" height="60" as="geometry" />
        </mxCell>
        <mxCell id="FRa2Onn5CMNMO9TeJyTO-3" value="Xem chi tiết giao diện" style="ellipse;whiteSpace=wrap;html=1;" vertex="1" parent="1">
          <mxGeometry x="450" y="280" width="120" height="60" as="geometry" />
        </mxCell>
        <mxCell id="FRa2Onn5CMNMO9TeJyTO-4" value="Xem demo" style="ellipse;whiteSpace=wrap;html=1;" vertex="1" parent="1">
          <mxGeometry x="670" y="210" width="120" height="60" as="geometry" />
        </mxCell>
        <mxCell id="FRa2Onn5CMNMO9TeJyTO-5" value="Đặt mua" style="ellipse;whiteSpace=wrap;html=1;" vertex="1" parent="1">
          <mxGeometry x="900" y="270" width="120" height="60" as="geometry" />
        </mxCell>
        <mxCell id="FRa2Onn5CMNMO9TeJyTO-6" value="Thanh toán trực tiếp" style="ellipse;whiteSpace=wrap;html=1;" vertex="1" parent="1">
          <mxGeometry x="1090" y="270" width="120" height="60" as="geometry" />
        </mxCell>
        <mxCell id="FRa2Onn5CMNMO9TeJyTO-7" value="extend" style="endArrow=open;endSize=12;dashed=1;html=1;exitX=0;exitY=0.5;exitDx=0;exitDy=0;entryX=1;entryY=0.5;entryDx=0;entryDy=0;" edge="1" parent="1" source="FRa2Onn5CMNMO9TeJyTO-3" target="FRa2Onn5CMNMO9TeJyTO-2">
          <mxGeometry width="160" relative="1" as="geometry">
            <mxPoint x="450" y="330" as="sourcePoint" />
            <mxPoint x="610" y="330" as="targetPoint" />
          </mxGeometry>
        </mxCell>
        <mxCell id="FRa2Onn5CMNMO9TeJyTO-8" value="extend" style="endArrow=open;endSize=12;dashed=1;html=1;exitX=0;exitY=0.5;exitDx=0;exitDy=0;entryX=1;entryY=0;entryDx=0;entryDy=0;" edge="1" parent="1" source="FRa2Onn5CMNMO9TeJyTO-4" target="FRa2Onn5CMNMO9TeJyTO-3">
          <mxGeometry width="160" relative="1" as="geometry">
            <mxPoint x="460" y="320" as="sourcePoint" />
            <mxPoint x="320" y="320" as="targetPoint" />
          </mxGeometry>
        </mxCell>
        <mxCell id="FRa2Onn5CMNMO9TeJyTO-10" value="extend" style="endArrow=open;endSize=12;dashed=1;html=1;exitX=0;exitY=0.5;exitDx=0;exitDy=0;entryX=1;entryY=0.5;entryDx=0;entryDy=0;" edge="1" parent="1" source="FRa2Onn5CMNMO9TeJyTO-6" target="FRa2Onn5CMNMO9TeJyTO-5">
          <mxGeometry width="160" relative="1" as="geometry">
            <mxPoint x="690" y="380" as="sourcePoint" />
            <mxPoint x="562.426406871193" y="341.2132034355965" as="targetPoint" />
          </mxGeometry>
        </mxCell>
        <mxCell id="FRa2Onn5CMNMO9TeJyTO-11" value="" style="endArrow=classic;html=1;exitX=1;exitY=0.3333333333333333;exitDx=0;exitDy=0;exitPerimeter=0;entryX=0;entryY=0.5;entryDx=0;entryDy=0;" edge="1" parent="1" source="FRa2Onn5CMNMO9TeJyTO-1" target="FRa2Onn5CMNMO9TeJyTO-2">
          <mxGeometry width="50" height="50" relative="1" as="geometry">
            <mxPoint x="510" y="350" as="sourcePoint" />
            <mxPoint x="560" y="300" as="targetPoint" />
          </mxGeometry>
        </mxCell>
        <mxCell id="FRa2Onn5CMNMO9TeJyTO-13" value="Xem file thiết kế" style="ellipse;whiteSpace=wrap;html=1;" vertex="1" parent="1">
          <mxGeometry x="680" y="330" width="120" height="60" as="geometry" />
        </mxCell>
        <mxCell id="FRa2Onn5CMNMO9TeJyTO-14" value="extend" style="endArrow=open;endSize=12;dashed=1;html=1;exitX=0;exitY=0.5;exitDx=0;exitDy=0;entryX=1;entryY=1;entryDx=0;entryDy=0;" edge="1" parent="1" source="FRa2Onn5CMNMO9TeJyTO-13" target="FRa2Onn5CMNMO9TeJyTO-3">
          <mxGeometry width="160" relative="1" as="geometry">
            <mxPoint x="680" y="250" as="sourcePoint" />
            <mxPoint x="562.426406871193" y="298.7867965644035" as="targetPoint" />
          </mxGeometry>
        </mxCell>
        <mxCell id="FRa2Onn5CMNMO9TeJyTO-16" value="include" style="endArrow=open;endSize=12;dashed=1;html=1;exitX=1;exitY=0.5;exitDx=0;exitDy=0;entryX=0;entryY=0.5;entryDx=0;entryDy=0;" edge="1" parent="1" source="FRa2Onn5CMNMO9TeJyTO-4" target="FRa2Onn5CMNMO9TeJyTO-5">
          <mxGeometry width="160" relative="1" as="geometry">
            <mxPoint x="680" y="250" as="sourcePoint" />
            <mxPoint x="562.426406871193" y="298.7867965644035" as="targetPoint" />
            <Array as="points" />
          </mxGeometry>
        </mxCell>
        <mxCell id="FRa2Onn5CMNMO9TeJyTO-17" value="include" style="endArrow=open;endSize=12;dashed=1;html=1;exitX=1;exitY=0.5;exitDx=0;exitDy=0;entryX=0;entryY=0.5;entryDx=0;entryDy=0;" edge="1" parent="1" source="FRa2Onn5CMNMO9TeJyTO-13" target="FRa2Onn5CMNMO9TeJyTO-5">
          <mxGeometry width="160" relative="1" as="geometry">
            <mxPoint x="800" y="250" as="sourcePoint" />
            <mxPoint x="910" y="310" as="targetPoint" />
            <Array as="points" />
          </mxGeometry>
        </mxCell>
      </root>
    </mxGraphModel>
  </diagram>
</mxfile>
